<mxfile host="app.diagrams.net" modified="2021-03-29T00:18:38.864Z" agent="5.0 (Macintosh; Intel Mac OS X 11_2_3) AppleWebKit/537.36 (KHTML, like Gecko) Chrome/88.0.4324.96 Safari/537.36" etag="ISGEsIM1TV5c_JmRaJtd" version="14.5.1" type="github">
  <diagram id="W3CbkMRxuSL6S3tpLEJ4" name="第 1 页">
    <mxGraphModel dx="1127" dy="771" grid="1" gridSize="10" guides="1" tooltips="1" connect="1" arrows="1" fold="1" page="1" pageScale="1" pageWidth="827" pageHeight="1169" math="0" shadow="0">
      <root>
        <mxCell id="0" />
        <mxCell id="1" parent="0" />
        <mxCell id="kdQae7gYBpZ3Nr9bD0Qf-1" value="数据校验" style="rounded=0;whiteSpace=wrap;html=1;" vertex="1" parent="1">
          <mxGeometry x="330" y="400" width="120" height="60" as="geometry" />
        </mxCell>
        <mxCell id="kdQae7gYBpZ3Nr9bD0Qf-6" value="" style="edgeStyle=orthogonalEdgeStyle;rounded=0;orthogonalLoop=1;jettySize=auto;html=1;" edge="1" parent="1" source="kdQae7gYBpZ3Nr9bD0Qf-2" target="kdQae7gYBpZ3Nr9bD0Qf-4">
          <mxGeometry relative="1" as="geometry" />
        </mxCell>
        <mxCell id="kdQae7gYBpZ3Nr9bD0Qf-8" value="程序启动" style="edgeLabel;html=1;align=center;verticalAlign=middle;resizable=0;points=[];" vertex="1" connectable="0" parent="kdQae7gYBpZ3Nr9bD0Qf-6">
          <mxGeometry x="-0.18" y="-2" relative="1" as="geometry">
            <mxPoint as="offset" />
          </mxGeometry>
        </mxCell>
        <mxCell id="kdQae7gYBpZ3Nr9bD0Qf-2" value="deqc" style="rounded=0;whiteSpace=wrap;html=1;" vertex="1" parent="1">
          <mxGeometry x="330" y="70" width="120" height="60" as="geometry" />
        </mxCell>
        <mxCell id="kdQae7gYBpZ3Nr9bD0Qf-9" value="" style="edgeStyle=orthogonalEdgeStyle;rounded=0;orthogonalLoop=1;jettySize=auto;html=1;" edge="1" parent="1" source="kdQae7gYBpZ3Nr9bD0Qf-4" target="kdQae7gYBpZ3Nr9bD0Qf-1">
          <mxGeometry relative="1" as="geometry" />
        </mxCell>
        <mxCell id="kdQae7gYBpZ3Nr9bD0Qf-4" value="初始化&lt;br&gt;校验规则" style="rounded=0;whiteSpace=wrap;html=1;" vertex="1" parent="1">
          <mxGeometry x="330" y="230" width="120" height="60" as="geometry" />
        </mxCell>
        <mxCell id="kdQae7gYBpZ3Nr9bD0Qf-5" value="初始化-校验规则：&lt;br&gt;1、初始化，表结构、数据总量、表关系、指数，相关规则。&lt;br&gt;" style="shape=note;whiteSpace=wrap;html=1;backgroundOutline=1;darkOpacity=0.05;" vertex="1" parent="1">
          <mxGeometry x="70" y="160" width="130" height="205" as="geometry" />
        </mxCell>
      </root>
    </mxGraphModel>
  </diagram>
</mxfile>
